/vscmnt/brussel_pixiu_data/_data_brussel/112/vsc11236/PredSimResults/SUBJ07opt3D/weighted-LRposFixed/trackIG/worker_01.mot
version=1
nRows=4
nColumns=50
inDegrees=yes
endheader
                time	         pelvis_tilt	         pelvis_list	     pelvis_rotation	           pelvis_tx	           pelvis_ty	           pelvis_tz	       hip_flexion_r	     hip_adduction_r	      hip_rotation_r	        knee_angle_r	       ankle_angle_r	         mtp_angle_r	       hip_flexion_l	     hip_adduction_l	      hip_rotation_l	        knee_angle_l	       ankle_angle_l	         mtp_angle_l	    lumbar_extension	      lumbar_bending	     lumbar_rotation	 ercspn_r/activation	 intobl_r/activation	 extobl_r/activation	    abd_r/activation	    add_r/activation	hamstrings_r/activation	bifemsh_r/activation	glut_max_r/activation	iliopsoas_r/activation	rect_fem_r/activation	  vasti_r/activation	gastroc_r/activation	 soleus_r/activation	tib_ant_r/activation	 ercspn_l/activation	 intobl_l/activation	 extobl_l/activation	    abd_l/activation	    add_l/activation	hamstrings_l/activation	bifemsh_l/activation	glut_max_l/activation	iliopsoas_l/activation	rect_fem_l/activation	  vasti_l/activation	gastroc_l/activation	 soleus_l/activation	tib_ant_l/activation	
          0.00000000	         -4.36042759	         -0.45064977	          8.85256024	          0.00000000	          0.84879251	         -0.01262918	         30.68550547	         -2.38759427	         -5.31612303	         -7.10053468	          2.75494913	          0.27300075	        -14.29693724	         -0.40651481	          4.25995421	         -9.31743036	          7.45730696	         29.17568886	        -11.77306009	         -1.21746697	         -1.63151192	          0.13449316	          0.14089356	          0.01000324	          0.01294650	          0.14181071	          0.07893535	          0.12939302	          0.07521687	          0.04130504	          0.01000540	          0.01000109	          0.01000410	          0.01000077	          0.42038331	          0.11116002	          0.01000110	          0.01000193	          0.03109705	          0.03222901	          0.01365155	          0.15480041	          0.01840424	          0.15643075	          0.01001716	          0.01000202	          0.16315619	          0.30556861	          0.01690526	
          0.01078957	         -4.35346394	         -0.39344141	          8.88330978	          0.01615231	          0.84711273	         -0.01221317	         30.61382647	         -2.15664364	         -5.11139781	         -8.73283868	          2.34628960	          0.26882177	        -14.85713145	         -0.48867130	          3.93343216	        -10.24597210	          6.46147285	         30.71660815	        -11.64167493	         -0.88377270	         -1.82812279	          0.11400349	          0.11942008	          0.01000383	          0.01097340	          0.17170247	          0.06690484	          0.10969404	          0.13883991	          0.03500981	          0.01001440	          0.01000437	          0.01392781	          0.01377133	          0.43658275	          0.12532405	          0.01000132	          0.01000325	          0.02635744	          0.06401268	          0.01615481	          0.13121063	          0.01560041	          0.29773340	          0.01020791	          0.01026831	          0.13828865	          0.28589962	          0.01432867	
          0.02157913	         -4.33865997	         -0.33597490	          8.86909107	          0.03250000	          0.84555902	         -0.01177430	         30.40053942	         -1.99905326	         -4.75962971	        -10.34557511	          1.96523315	          0.25216808	        -15.23542883	         -0.55031538	          3.57175431	        -11.54333429	          5.41134941	         32.18900879	        -11.50174294	         -0.53929514	         -2.01452937	          0.12610555	          0.10127462	          0.01000190	          0.07900527	          0.16746811	          0.06630563	          0.11964603	          0.15399340	          0.02967396	          0.01000229	          0.01000049	          0.01180580	          0.01167258	          0.51818812	          0.15065700	          0.01000079	          0.01000311	          0.02234020	          0.05863195	          0.01388687	          0.11121816	          0.01322323	          0.25236207	          0.01001080	          0.01000188	          0.11721120	          0.26376602	          0.01214483	
          0.03236870	         -4.31988209	         -0.26225509	          8.80647616	          0.04885502	          0.84428940	         -0.01124130	         30.10312958	         -1.86009000	         -4.45772233	        -11.79787959	          1.51712841	          0.23564882	        -15.35781220	         -0.57708187	          3.18211110	        -13.30159625	          4.26273648	         33.54744320	        -11.37430271	         -0.21342852	         -2.18652319	          0.14834138	          0.08583919	          0.01000190	          0.13498390	          0.17706155	          0.05956009	          0.10141344	          0.17620300	          0.02515137	          0.01000255	          0.01000057	          0.01000738	          0.01000044	          0.56405639	          0.17653822	          0.01000077	          0.01000242	          0.01893526	          0.05574290	          0.01414445	          0.09427260	          0.01120875	          0.21390421	          0.01001389	          0.01000184	          0.09934629	          0.23424718	          0.01029392	
